# Blender v2.79 (sub 0) OBJ File: ''
# www.blender.org
mtllib Corner.mtl
o Cube.000_Cube.004
v -6.000000 1.000000 -7.000000
v -6.000000 12.000000 -7.000000
v -6.000000 1.000000 -8.000000
v -6.000000 12.000000 -8.000000
v 6.000000 1.000000 -7.000000
v 6.000000 12.000000 -7.000000
v 6.000000 1.000000 -8.000000
v 6.000000 12.000000 -8.000000
v -7.000000 1.000000 6.000000
v -7.000000 12.000000 6.000000
v -8.000000 1.000000 6.000000
v -8.000000 12.000000 6.000000
v -7.000000 1.000000 -6.000000
v -7.000000 12.000000 -6.000000
v -8.000000 1.000000 -6.000000
v -8.000000 12.000000 -6.000000
v -8.000000 0.000000 8.000000
v 8.000000 0.000000 8.000000
v -8.000000 0.000000 -8.000000
v 8.000000 0.000000 -8.000000
v -8.000000 1.000000 8.000000
v 8.000000 1.000000 8.000000
v -8.000000 1.000000 -8.000000
v 8.000000 1.000000 -8.000000
v 6.000000 1.000000 -6.000000
v 6.000000 12.000000 -6.000000
v 6.000000 1.000000 -8.000000
v 6.000000 12.000000 -8.000000
v 8.000000 1.000000 -6.000000
v 8.000000 12.000000 -6.000000
v 8.000000 1.000000 -8.000000
v 8.000000 12.000000 -8.000000
v -8.000000 1.000000 -6.000001
v -8.000000 12.000000 -6.000001
v -8.000000 1.000000 -8.000000
v -8.000000 12.000000 -8.000000
v -6.000000 1.000000 -6.000001
v -6.000000 12.000000 -6.000001
v -6.000000 1.000000 -8.000000
v -6.000000 12.000000 -8.000000
v -8.000000 1.000000 8.000000
v -8.000000 12.000000 8.000000
v -8.000000 1.000000 6.000000
v -8.000000 12.000000 6.000000
v -6.000000 1.000000 8.000000
v -6.000000 12.000000 8.000000
v -6.000000 1.000000 6.000000
v -6.000000 12.000000 6.000000
vt 0.151439 0.972710
vt 0.151439 0.939016
vt 0.154635 0.939016
vt 0.154635 0.972710
vt 0.183402 0.939016
vt 0.148242 0.939016
vt 0.148242 0.902258
vt 0.183402 0.902258
vt 0.157831 0.939016
vt 0.157831 0.972710
vt 0.154635 0.972710
vt 0.154635 0.939016
vt 0.183402 0.902258
vt 0.218561 0.902258
vt 0.218561 0.939016
vt 0.183402 0.939016
vt 0.148242 0.975773
vt 0.148242 0.939016
vt 0.151439 0.939016
vt 0.151439 0.975773
vt 0.221758 0.902258
vt 0.221758 0.939016
vt 0.151439 0.972710
vt 0.151439 0.939016
vt 0.154635 0.939016
vt 0.154635 0.972710
vt 0.183402 0.939016
vt 0.148242 0.939016
vt 0.148242 0.902258
vt 0.183402 0.902258
vt 0.157831 0.939016
vt 0.157831 0.972710
vt 0.154635 0.972710
vt 0.154635 0.939016
vt 0.183402 0.902258
vt 0.218561 0.902258
vt 0.218561 0.939016
vt 0.183402 0.939016
vt 0.148242 0.975773
vt 0.148242 0.939016
vt 0.151439 0.939016
vt 0.151439 0.975773
vt 0.221758 0.902258
vt 0.221758 0.939016
vt 0.313265 0.926614
vt 0.268863 0.926614
vt 0.268863 0.898863
vt 0.313265 0.898863
vt 0.268863 0.954365
vt 0.268863 0.926614
vt 0.313265 0.926614
vt 0.313265 0.954365
vt 0.316040 0.898863
vt 0.316040 0.926614
vt 0.313265 0.898863
vt 0.324365 0.898863
vt 0.324365 0.926614
vt 0.321590 0.926614
vt 0.321590 0.898863
vt 0.318815 0.898863
vt 0.318815 0.926614
vt 0.316040 0.926614
vt 0.316040 0.898863
vt 0.318815 0.926614
vt 0.318815 0.898863
vt 0.321590 0.898863
vt 0.015586 0.982605
vt 0.015586 0.954872
vt 0.019683 0.954872
vt 0.019683 0.982605
vt 0.031973 0.954872
vt 0.031973 0.982605
vt 0.027877 0.982605
vt 0.027877 0.954872
vt 0.036070 0.954872
vt 0.036070 0.982605
vt 0.031973 0.982605
vt 0.031973 0.954872
vt 0.023780 0.982605
vt 0.023780 0.954872
vt 0.027877 0.954872
vt 0.027877 0.982605
vt 0.023780 0.987647
vt 0.019683 0.987647
vt 0.019683 0.982605
vt 0.023780 0.982605
vt 0.011489 0.982605
vt 0.011489 0.987647
vt 0.007392 0.987647
vt 0.007392 0.982605
vt 0.007392 0.982605
vt 0.007392 0.954872
vt 0.011489 0.954872
vt 0.011489 0.982605
vt 0.019683 0.982605
vt 0.019683 0.954872
vt 0.023780 0.954872
vt 0.023780 0.982605
vt 0.040167 0.954872
vt 0.040167 0.982605
vt 0.036070 0.982605
vt 0.036070 0.954872
vt 0.011489 0.982605
vt 0.011489 0.954872
vt 0.015586 0.954872
vt 0.015586 0.982605
vt 0.015586 0.987647
vt 0.015586 0.982605
vt 0.019683 0.982605
vt 0.019683 0.987647
vt 0.015586 0.982605
vt 0.015586 0.987647
vt 0.011489 0.987647
vt 0.011489 0.982605
vt 0.007392 0.982605
vt 0.007392 0.954872
vt 0.011489 0.954872
vt 0.011489 0.982605
vt 0.019683 0.982605
vt 0.019683 0.954872
vt 0.023780 0.954872
vt 0.023780 0.982605
vt 0.040167 0.954872
vt 0.040167 0.982605
vt 0.036070 0.982605
vt 0.036070 0.954872
vt 0.011489 0.982605
vt 0.011489 0.954872
vt 0.015586 0.954872
vt 0.015586 0.982605
vt 0.015586 0.987647
vt 0.015586 0.982605
vt 0.019683 0.982605
vt 0.019683 0.987647
vt 0.015586 0.982605
vt 0.015586 0.987647
vt 0.011489 0.987647
vt 0.011489 0.982605
vn -1.0000 0.0000 0.0000
vn 0.0000 0.0000 -1.0000
vn 1.0000 0.0000 0.0000
vn 0.0000 0.0000 1.0000
vn 0.0000 -1.0000 0.0000
vn 0.0000 1.0000 0.0000
usemtl MainMaterial
s off
f 1/1/1 2/2/1 4/3/1 3/4/1
f 3/5/2 4/6/2 8/7/2 7/8/2
f 7/9/3 8/10/3 6/11/3 5/12/3
f 5/13/4 6/14/4 2/15/4 1/16/4
f 3/17/5 7/18/5 5/19/5 1/20/5
f 8/21/6 4/22/6 2/15/6 6/14/6
f 9/23/4 10/24/4 12/25/4 11/26/4
f 11/27/1 12/28/1 16/29/1 15/30/1
f 15/31/2 16/32/2 14/33/2 13/34/2
f 13/35/3 14/36/3 10/37/3 9/38/3
f 11/39/5 15/40/5 13/41/5 9/42/5
f 16/43/6 12/44/6 10/37/6 14/36/6
f 17/45/5 19/46/5 20/47/5 18/48/5
f 21/49/6 22/50/6 24/51/6 23/52/6
f 18/53/3 20/54/3 24/51/3 22/55/3
f 19/56/1 17/57/1 21/58/1 23/59/1
f 20/60/2 19/61/2 23/62/2 24/63/2
f 17/64/4 18/65/4 22/66/4 21/58/4
f 25/67/1 26/68/1 28/69/1 27/70/1
f 27/71/2 28/72/2 32/73/2 31/74/2
f 31/75/3 32/76/3 30/77/3 29/78/3
f 29/79/4 30/80/4 26/81/4 25/82/4
f 27/83/5 31/84/5 29/85/5 25/86/5
f 32/87/6 28/88/6 26/89/6 30/90/6
f 33/91/1 34/92/1 36/93/1 35/94/1
f 35/95/2 36/96/2 40/97/2 39/98/2
f 39/99/3 40/100/3 38/101/3 37/102/3
f 37/103/4 38/104/4 34/105/4 33/106/4
f 35/107/5 39/108/5 37/109/5 33/110/5
f 40/111/6 36/112/6 34/113/6 38/114/6
f 41/115/1 42/116/1 44/117/1 43/118/1
f 43/119/2 44/120/2 48/121/2 47/122/2
f 47/123/3 48/124/3 46/125/3 45/126/3
f 45/127/4 46/128/4 42/129/4 41/130/4
f 43/131/5 47/132/5 45/133/5 41/134/5
f 48/135/6 44/136/6 42/137/6 46/138/6
