# Blender v2.79 (sub 0) OBJ File: ''
# www.blender.org
mtllib elevatorDoor.mtl
o Cube.004_Cube.011
v 6.000000 1.000000 -6.000000
v 6.000000 12.000000 -6.000000
v 6.000000 1.000000 -8.000000
v 6.000000 12.000000 -8.000000
v 8.000000 1.000000 -6.000000
v 8.000000 12.000000 -6.000000
v 8.000000 1.000000 -8.000000
v 8.000000 12.000000 -8.000000
v -8.000000 1.000000 -6.000000
v -8.000000 12.000000 -6.000000
v -8.000000 1.000000 -8.000000
v -8.000000 12.000000 -8.000000
v -6.000000 1.000000 -6.000000
v -6.000000 12.000000 -6.000000
v -6.000000 1.000000 -8.000000
v -6.000000 12.000000 -8.000000
v -6.000000 1.000000 -7.000000
v -6.000000 12.000000 -7.000000
v -6.000000 1.000000 -8.000000
v -6.000000 12.000000 -8.000000
v 6.000000 1.000000 -7.000000
v 6.000000 12.000000 -7.000000
v 6.000000 1.000000 -8.000000
v 6.000000 12.000000 -8.000000
v 3.000000 1.000000 -8.000000
v -3.000000 1.000000 -8.000000
v -3.000000 12.000000 -8.000000
v 3.000000 12.000000 -8.000000
v -3.000000 1.000000 -7.000000
v 3.000000 1.000000 -7.000000
v 3.000000 12.000000 -7.000000
v -3.000000 12.000000 -7.000000
v -6.000000 9.396018 -7.000000
v -6.000000 9.396018 -8.000000
v 6.000000 9.396018 -8.000000
v 6.000000 9.396018 -7.000000
v 3.000000 9.396018 -7.000000
v -3.000000 9.396018 -7.000000
v -3.000000 9.396018 -8.000000
v 3.000000 9.396018 -8.000000
vt 0.015586 0.982605
vt 0.015586 0.954872
vt 0.019683 0.954872
vt 0.019683 0.982605
vt 0.031973 0.954872
vt 0.031973 0.982605
vt 0.027877 0.982605
vt 0.027877 0.954872
vt 0.036070 0.954872
vt 0.036070 0.982605
vt 0.031973 0.982605
vt 0.031973 0.954872
vt 0.023780 0.982605
vt 0.023780 0.954872
vt 0.027877 0.954872
vt 0.027877 0.982605
vt 0.023780 0.987647
vt 0.019683 0.987647
vt 0.019683 0.982605
vt 0.023780 0.982605
vt 0.011489 0.982605
vt 0.011489 0.987647
vt 0.007392 0.987647
vt 0.007392 0.982605
vt 0.007392 0.982605
vt 0.007392 0.954872
vt 0.011489 0.954872
vt 0.011489 0.982605
vt 0.019683 0.982605
vt 0.019683 0.954872
vt 0.023780 0.954872
vt 0.023780 0.982605
vt 0.040167 0.954872
vt 0.040167 0.982605
vt 0.036070 0.982605
vt 0.036070 0.954872
vt 0.011489 0.982605
vt 0.011489 0.954872
vt 0.015586 0.954872
vt 0.015586 0.982605
vt 0.015586 0.987647
vt 0.015586 0.982605
vt 0.019683 0.982605
vt 0.019683 0.987647
vt 0.015586 0.982605
vt 0.015586 0.987647
vt 0.011489 0.987647
vt 0.011489 0.982605
vt 0.151439 0.955863
vt 0.151439 0.939016
vt 0.154635 0.939016
vt 0.154635 0.955863
vt 0.165822 0.911447
vt 0.148242 0.911447
vt 0.148242 0.902258
vt 0.165822 0.902258
vt 0.157831 0.955863
vt 0.157831 0.972710
vt 0.154635 0.972710
vt 0.154635 0.955863
vt 0.200982 0.929826
vt 0.218561 0.929826
vt 0.218561 0.939016
vt 0.200982 0.939016
vt 0.148242 0.948205
vt 0.148242 0.939016
vt 0.151439 0.939016
vt 0.151439 0.948205
vt 0.221758 0.929826
vt 0.221758 0.939016
vt 0.221758 0.902258
vt 0.221758 0.911447
vt 0.218561 0.911448
vt 0.218561 0.902258
vt 0.183402 0.929826
vt 0.148242 0.966584
vt 0.165822 0.929826
vt 0.148242 0.975773
vt 0.151439 0.966584
vt 0.151439 0.975773
vt 0.200982 0.902258
vt 0.200982 0.911447
vt 0.165822 0.939016
vt 0.148242 0.939016
vt 0.148242 0.929826
vt 0.183402 0.939016
vt 0.183402 0.929826
vt 0.343855 0.315726
vt 0.343855 0.045133
vt 0.808293 0.045133
vt 0.808291 0.315726
vt 0.183402 0.911447
vt 0.183402 0.939016
vt 0.157831 0.939016
vt 0.154635 0.939016
vt 0.183402 0.911448
vt 0.183402 0.902258
vt 0.151439 0.972710
vt 0.154635 0.972710
vt 0.985536 0.969450
vt 0.442879 0.969450
vt 0.442881 0.702678
vt 0.985538 0.702678
vn -1.0000 0.0000 0.0000
vn 0.0000 0.0000 -1.0000
vn 1.0000 0.0000 0.0000
vn 0.0000 0.0000 1.0000
vn 0.0000 -1.0000 0.0000
vn 0.0000 1.0000 0.0000
usemtl MainMaterial
s off
f 1/1/1 2/2/1 4/3/1 3/4/1
f 3/5/2 4/6/2 8/7/2 7/8/2
f 7/9/3 8/10/3 6/11/3 5/12/3
f 5/13/4 6/14/4 2/15/4 1/16/4
f 3/17/5 7/18/5 5/19/5 1/20/5
f 8/21/6 4/22/6 2/23/6 6/24/6
f 9/25/1 10/26/1 12/27/1 11/28/1
f 11/29/2 12/30/2 16/31/2 15/32/2
f 15/33/3 16/34/3 14/35/3 13/36/3
f 13/37/4 14/38/4 10/39/4 9/40/4
f 11/41/5 15/42/5 13/43/5 9/44/5
f 16/45/6 12/46/6 10/47/6 14/48/6
usemtl GlassMaterial
f 33/49/1 18/50/1 20/51/1 34/52/1
f 40/53/2 28/54/2 24/55/2 35/56/2
f 35/57/3 24/58/3 22/59/3 36/60/3
f 38/61/4 32/62/4 18/63/4 33/64/4
f 25/65/5 23/66/5 21/67/5 30/68/5
f 27/69/6 20/70/6 18/63/6 32/62/6
f 24/71/6 28/72/6 31/73/6 22/74/6
f 38/61/3 29/75/3 26/76/3 39/77/3
f 19/78/5 26/76/5 29/79/5 17/80/5
f 36/81/4 22/74/4 31/73/4 37/82/4
f 34/83/2 20/84/2 27/85/2 39/77/2
f 19/86/2 34/83/2 39/77/2 26/87/2
f 21/88/4 36/89/4 37/90/4 30/91/4
f 37/82/1 40/53/1 25/65/1 30/92/1
f 29/75/4 38/61/4 33/64/4 17/93/4
f 23/94/3 35/57/3 36/60/3 21/95/3
f 25/96/2 40/53/2 35/56/2 23/97/2
f 17/98/1 33/49/1 34/52/1 19/99/1
f 37/82/5 38/61/5 39/77/5 40/53/5
f 28/72/6 27/69/6 32/62/6 31/73/6
f 27/85/2 28/54/2 40/53/2 39/77/2
f 31/100/4 32/101/4 38/102/4 37/103/4
