# Blender v2.79 (sub 0) OBJ File: ''
# www.blender.org
mtllib Floor.mtl
o Cube.006_Cube.013
v -8.000000 0.000000 8.000000
v 8.000000 0.000000 8.000000
v -8.000000 0.000000 -8.000000
v 8.000000 0.000000 -8.000000
v -8.000000 1.000000 8.000000
v 8.000000 1.000000 8.000000
v -8.000000 1.000000 -8.000000
v 8.000000 1.000000 -8.000000
vt 0.313265 0.926614
vt 0.268863 0.926614
vt 0.268863 0.898863
vt 0.313265 0.898863
vt 0.268863 0.954365
vt 0.268863 0.926614
vt 0.313265 0.926614
vt 0.313265 0.954365
vt 0.316040 0.898863
vt 0.316040 0.926614
vt 0.313265 0.898863
vt 0.324365 0.898863
vt 0.324365 0.926614
vt 0.321590 0.926614
vt 0.321590 0.898863
vt 0.318815 0.898863
vt 0.318815 0.926614
vt 0.316040 0.926614
vt 0.316040 0.898863
vt 0.318815 0.926614
vt 0.318815 0.898863
vt 0.321590 0.898863
vn 0.0000 -1.0000 0.0000
vn 0.0000 1.0000 0.0000
vn 1.0000 0.0000 0.0000
vn -1.0000 0.0000 0.0000
vn 0.0000 0.0000 -1.0000
vn 0.0000 0.0000 1.0000
usemtl MainMaterial
s off
f 1/1/1 3/2/1 4/3/1 2/4/1
f 5/5/2 6/6/2 8/7/2 7/8/2
f 2/9/3 4/10/3 8/7/3 6/11/3
f 3/12/4 1/13/4 5/14/4 7/15/4
f 4/16/5 3/17/5 7/18/5 8/19/5
f 1/20/6 2/21/6 6/22/6 5/14/6
